<svg xmlns="http://www.w3.org/2000/svg" viewBox="0 0 309.56 309.56"><defs><style>.cls-1,.cls-2{fill:none;stroke-miterlimit:10;}.cls-1{stroke:#9f42f5;stroke-width:5px;}.cls-2{stroke:#1499db;stroke-width:4px;}.cls-3{fill:#042354;}</style></defs><g id="Capa_2" data-name="Capa 2"><g id="Capa_1-2" data-name="Capa 1"><circle class="cls-1" cx="154.78" cy="154.78" r="152.28"/><circle class="cls-2" cx="154.78" cy="154.78" r="140.43"/><path class="cls-3" d="M231.31,227.39c-1,2.89-3.08,3.92-6.1,3.92q-37.28-.09-74.56,0c-2.09,0-3.84-.55-5-2.4-2-3.33.37-7.39,4.45-7.41,7.32,0,14.64,0,22,0h49.18a2.35,2.35,0,0,0,.18-.61c-.12-11.61-.39-23.19-2.36-34.68a20.8,20.8,0,0,0-7-12.5c-5.71-5-12.3-8.56-19.16-11.69-8.7,13.62-20.34,21.12-37,18.28.43,2.79,1,5.56,1.26,8.35,1.71,18.45-10.6,36.17-28.48,41.14a39.64,39.64,0,0,1-50.1-32.5c-3.31-22.19,13.29-43.1,35.67-44.94,12.39-1,22.85,3.16,31.8,11.58,4.09,3.84,8.81,6.49,14.49,7.07,7.44.76,13.51-2.09,18.67-7.23a34.62,34.62,0,0,0,6.52-9.41c1.62-3.33,3.86-4.23,7.33-2.85,9.67,3.86,18.76,8.69,26.48,15.85,5.35,5,8.15,11.15,9.3,18.25a186.11,186.11,0,0,1,2.13,24.83c0,.88.17,1.76.25,2.64Zm-113.4-5.95c16.09.07,29.64-13.22,29.71-29.15a29.75,29.75,0,1,0-29.71,29.15Z"/><path class="cls-3" d="M165.86,78.26A79.2,79.2,0,0,1,174,79.88c13.52,4.12,21.5,13.5,24.31,27.08a42.11,42.11,0,0,1-23.86,46.69c-2.95,1.34-5.76.51-7-2.09s-.1-5.35,2.8-6.74c11.94-5.76,18.17-15.39,19.09-28.49.8-11.47-5.19-22-15.2-25.92s-20.2-3.7-29.23,3c-6.55,4.89-9.33,12-9.81,20-.57,9.27,2.82,17.36,8.23,24.68s12.62,12.79,20.34,17.55c1.1.68,2.25,1.29,3.32,2a4.82,4.82,0,0,1,1.54,6.46,4.7,4.7,0,0,1-6.32,2c-12.42-6.94-23.52-15.38-30.64-28.08-4.2-7.51-6.81-15.54-6.3-24.24.78-13.53,6.26-24.45,18.47-31.28a34.34,34.34,0,0,1,13.8-4,4.33,4.33,0,0,0,.83-.24Z"/><path class="cls-3" d="M113,196.59c-4.06,0-7.89,0-11.72,0a4.7,4.7,0,0,1-4.44-2.76,4.6,4.6,0,0,1,.48-5.06,5,5,0,0,1,4.29-2H113v-5.55c0-2,0-4,0-6a4.9,4.9,0,1,1,9.79-.13c.07,3.58,0,7.16,0,10.75,0,.24,0,.48.08.9,3.17,0,6.29,0,9.41,0,.8,0,1.6,0,2.39,0a4.9,4.9,0,0,1-.13,9.8c-3.33.06-6.67,0-10,0h-1.76c0,3.87,0,7.59,0,11.31a5,5,0,0,1-2.68,4.81,4.85,4.85,0,0,1-7.12-4.32c-.07-3.38,0-6.77,0-10.15C113,197.75,113,197.26,113,196.59Z"/></g></g></svg>