<svg xmlns="http://www.w3.org/2000/svg" viewBox="0 0 309.56 309.56"><defs><style>.cls-1,.cls-2,.cls-3{fill:none;}.cls-1{stroke:#1499db;stroke-width:4px;}.cls-1,.cls-2{stroke-miterlimit:10;}.cls-2{stroke:#9f42f5;stroke-width:5px;}.cls-4{fill:#042354;}</style></defs><g id="Capa_2" data-name="Capa 2"><g id="Capa_1-2" data-name="Capa 1"><circle class="cls-1" cx="154.78" cy="154.78" r="140.43"/><circle class="cls-2" cx="154.78" cy="154.78" r="152.28"/><path class="cls-3" d="M177.79,143h-46a1.14,1.14,0,0,0-.63.16l-14,18.33h75.28l-14-18.36A1.13,1.13,0,0,0,177.79,143Z"/><path class="cls-3" d="M125,97.34a2.64,2.64,0,0,0-2.64,2.64v12a2.64,2.64,0,1,0,5.28,0V100A2.64,2.64,0,0,0,125,97.34Z"/><polygon class="cls-3" points="173.75 176.22 135.5 176.22 138.29 205.84 170.25 205.84 173.75 176.22"/><polygon class="cls-3" points="139.02 213.58 169.34 213.58 169.69 210.66 138.75 210.66 139.02 213.58"/><polygon class="cls-3" points="132.03 205.84 128.12 171.05 181.32 171.05 176.42 205.84 180.63 205.84 189.44 166.34 119.99 166.34 127.04 205.84 132.03 205.84"/><path class="cls-3" d="M133.49,218.75l-.91-8.09H126a38.74,38.74,0,0,0-11.34,27.46,7.23,7.23,0,0,0,7.23,7.22h63.78a7.23,7.23,0,0,0,7.23-7.22,38.74,38.74,0,0,0-11.34-27.46h-5.83l-1.14,8.09Z"/><path class="cls-3" d="M146.08,102.41a1.49,1.49,0,1,0-1.48,1.49A1.5,1.5,0,0,0,146.08,102.41Z"/><path class="cls-3" d="M165,100.93a1.49,1.49,0,1,0,1.48,1.48A1.5,1.5,0,0,0,165,100.93Z"/><path class="cls-3" d="M184.53,114.57a2.64,2.64,0,0,0,2.64-2.64V100a2.64,2.64,0,1,0-5.27,0v12A2.64,2.64,0,0,0,184.53,114.57Z"/><path class="cls-3" d="M189.75,64.22H119.81L131.13,81c.21-.29.43-.56.66-.83l.13-.15c.21-.24.43-.48.65-.71a3.7,3.7,0,0,1,.28-.28c.18-.19.37-.36.56-.54l.31-.28.63-.51.27-.22c.31-.23.62-.45.94-.66l.13-.09c.28-.18.56-.35.85-.51l.34-.19.7-.36.37-.17c.25-.11.49-.22.75-.32l.33-.13c.36-.14.72-.27,1.09-.38l.08,0,1.05-.28.37-.07c.26-.06.53-.11.8-.15l.41-.06c.27,0,.55-.07.82-.09l.37,0c.4,0,.8,0,1.2,0h19.12c.41,0,.8,0,1.2,0l.37,0c.28,0,.55,0,.82.09l.41.06c.27,0,.54.09.8.15l.37.07,1.06.28.07,0c.37.11.73.24,1.1.38l.32.13.76.32.36.17c.24.12.48.24.71.37l.33.17c.3.17.59.35.88.54l.1.06c.32.22.64.44.94.67l.27.21.64.53.3.27c.19.17.38.36.57.54l.27.28q.34.34.66.72l.12.14c.23.27.45.54.66.83Z"/><path class="cls-3" d="M177.08,91.48a12.74,12.74,0,0,0-12.74-12.74H145.22a12.74,12.74,0,0,0-12.74,12.74V117c0,6.77,13.08,18.58,20.57,18.58h3.46c7.5,0,20.57-11.81,20.57-18.58V91.48ZM138.3,102.41a6.3,6.3,0,1,1,6.3,6.3A6.31,6.31,0,0,1,138.3,102.41Zm26.16,17.78c-3.09,3.09-6.37,4.65-9.77,4.65l-.62,0c-5.47-.3-9-4.64-9.14-4.83a2.4,2.4,0,0,1,3.75-3,8.93,8.93,0,0,0,5.69,3c2.16.1,4.43-1,6.68-3.23a2.41,2.41,0,0,1,3.41,3.4Zm.51-11.48a6.3,6.3,0,1,1,6.29-6.3A6.3,6.3,0,0,1,165,108.71Z"/><path class="cls-4" d="M114,165.5a5.08,5.08,0,0,0,1,.47l-.25-1.42Z"/><path class="cls-4" d="M116.09,159a2.4,2.4,0,0,1,.83,2.53h.22l14-18.33a1.14,1.14,0,0,1,.63-.16h46a1.13,1.13,0,0,1,.6.13l14,18.36h.22a2.41,2.41,0,0,1,4.21-2.13h0l-14.63-19.16a5.55,5.55,0,0,0-4.43-2h-13.5a18.57,18.57,0,0,1-7.78,2.16h-3.46a18.57,18.57,0,0,1-7.78-2.16h-13.5a5.52,5.52,0,0,0-4.42,2L112.7,159.4h0A2.41,2.41,0,0,1,116.09,159Z"/><path class="cls-4" d="M194.45,166a5.6,5.6,0,0,0,1.08-.5l-.75-.95Z"/><path class="cls-4" d="M131.79,80.18c-.23.27-.45.54-.66.83L119.81,64.22h69.94L178.43,81c-.21-.29-.43-.56-.66-.83a17.42,17.42,0,0,1,2.69,4.35c.19.44.35.89.5,1.34l13.15-19.5h0a4.19,4.19,0,0,0,.24-4.38,5.09,5.09,0,0,0-4.57-2.58h-70A5.1,5.1,0,0,0,115.21,62a4.19,4.19,0,0,0,.24,4.38l13.15,19.5c.15-.45.31-.9.5-1.34A17.42,17.42,0,0,1,131.79,80.18Zm58.33-16.5Z"/><path class="cls-4" d="M181.72,118.84a7.48,7.48,0,0,1-4.64-6.91v5c0,6.77-13.07,18.58-20.57,18.58h-3.46c-7.49,0-20.57-11.81-20.57-18.58v-5a7.48,7.48,0,0,1-4.64,6.91c1.27,7.24,9.6,15.54,17.43,19.38h19C172.12,134.38,180.45,126.08,181.72,118.84Z"/><path class="cls-4" d="M180,87.12l-2.51,2.63L176,86.44a12.67,12.67,0,0,1,1,5V100a7.45,7.45,0,0,1,4.82-7V91.48a17.47,17.47,0,0,0-.94-5.61l-.47.69A3.52,3.52,0,0,1,180,87.12Z"/><path class="cls-4" d="M132.48,100v-8.5a12.63,12.63,0,0,1,1-5l-1.43,3.33-2.52-2.62a3.75,3.75,0,0,1-.5-.59l-.47-.69a17.42,17.42,0,0,0-.93,5.61V93A7.44,7.44,0,0,1,132.48,100Z"/><path class="cls-4" d="M156.51,140.38a18.57,18.57,0,0,0,7.78-2.16h-19a18.57,18.57,0,0,0,7.78,2.16Z"/><path class="cls-4" d="M129.57,87.15l2.52,2.62,1.43-3.33a12.73,12.73,0,0,1,11.7-7.7h19.12a12.73,12.73,0,0,1,11.7,7.7l1.47,3.31L180,87.12a3.52,3.52,0,0,0,.47-.56l.47-.69c-.15-.45-.31-.9-.5-1.34a17.42,17.42,0,0,0-2.69-4.35l-.12-.14q-.32-.37-.66-.72l-.27-.28c-.19-.18-.38-.37-.57-.54l-.3-.27-.64-.53-.27-.21c-.3-.23-.62-.45-.94-.67l-.1-.06c-.29-.19-.58-.37-.88-.54l-.33-.17c-.23-.13-.47-.25-.71-.37l-.36-.17-.76-.32-.32-.13c-.37-.14-.73-.27-1.1-.38l-.07,0-1.06-.28-.37-.07c-.26-.06-.53-.11-.8-.15l-.41-.06c-.27,0-.54-.07-.82-.09l-.37,0c-.4,0-.79,0-1.2,0H145.22c-.4,0-.8,0-1.2,0l-.37,0c-.27,0-.55,0-.82.09l-.41.06c-.27,0-.54.09-.8.15l-.37.07-1.05.28-.08,0c-.37.11-.73.24-1.09.38l-.33.13c-.26.1-.5.21-.75.32l-.37.17-.7.36-.34.19c-.29.16-.57.33-.85.51l-.13.09c-.32.21-.63.43-.94.66l-.27.22-.63.51-.31.28c-.19.18-.38.35-.56.54a3.7,3.7,0,0,0-.28.28c-.22.23-.44.47-.65.71l-.13.15a17.42,17.42,0,0,0-2.69,4.35c-.19.44-.35.89-.5,1.34l.47.69A3.75,3.75,0,0,0,129.57,87.15Z"/><path class="cls-4" d="M127.67,111.93a2.64,2.64,0,1,1-5.28,0V100a2.64,2.64,0,1,1,5.28,0V93a7.29,7.29,0,0,0-2.64-.5,7.47,7.47,0,0,0-7.46,7.46v12a7.46,7.46,0,0,0,10.27,6.91,10.81,10.81,0,0,1-.17-1.86Z"/><path class="cls-4" d="M132.48,111.93V100a7.44,7.44,0,0,0-4.81-7v24a10.81,10.81,0,0,0,.17,1.86A7.48,7.48,0,0,0,132.48,111.93Z"/><path class="cls-4" d="M184.53,97.34a2.64,2.64,0,0,1,2.64,2.64v12a2.64,2.64,0,1,1-5.27,0v5a10.84,10.84,0,0,1-.18,1.86A7.46,7.46,0,0,0,192,111.93V100a7.47,7.47,0,0,0-7.46-7.46,7.19,7.19,0,0,0-2.63.5v7A2.64,2.64,0,0,1,184.53,97.34Z"/><path class="cls-4" d="M177.08,100v12a7.48,7.48,0,0,0,4.64,6.91,10.84,10.84,0,0,0,.18-1.86V93A7.45,7.45,0,0,0,177.08,100Z"/><path class="cls-4" d="M181.57,210.66a38.74,38.74,0,0,1,11.34,27.46,7.23,7.23,0,0,1-7.23,7.22H121.9a7.23,7.23,0,0,1-7.23-7.22A38.74,38.74,0,0,1,126,210.66h-3l-.57-3.21a43.47,43.47,0,0,0-12.58,30.67,12.05,12.05,0,0,0,12,12h63.78a12.05,12.05,0,0,0,12-12,43.47,43.47,0,0,0-12.53-30.62l-.7,3.16Z"/><path class="cls-4" d="M189.44,166.34l-8.81,39.5h2.9l.7.68c.33.32.64.65,1,1l9.26-41.5a6.26,6.26,0,0,1-2,.34Z"/><path class="cls-4" d="M124.05,205.84h3L120,166.34h-2.88A6.23,6.23,0,0,1,115,166l7.41,41.48c.3-.31.6-.63.91-.93Z"/><path class="cls-4" d="M193.07,162.37a2.28,2.28,0,0,1-.43-.85H116.92a2.41,2.41,0,0,1-.42.85l-1.72,2.18L115,166a6.23,6.23,0,0,0,2.08.37h75.34a6.26,6.26,0,0,0,2-.34l.33-1.45Z"/><path class="cls-4" d="M126,210.66h6.57l-.55-4.82h-8l-.7.68c-.31.3-.61.62-.91.93l.57,3.21Z"/><path class="cls-4" d="M183.53,205.84h-7.11l-.68,4.82h8.75l.7-3.16c-.32-.33-.63-.66-1-1Z"/><path class="cls-4" d="M112.25,163.62a3.92,3.92,0,0,1,.44-4.2v0L93.93,183.27a2.43,2.43,0,0,0-.51,1.29l-2.61,31.06a2.41,2.41,0,0,0,2.2,2.6h.2a2.41,2.41,0,0,0,2.4-2.21l.86-10.27-3.59-3.17A2.41,2.41,0,0,1,96.07,199l.91.8,1.18-14.09L114,165.5A4.59,4.59,0,0,1,112.25,163.62Z"/><path class="cls-4" d="M114.24,161.52h2.68a2.41,2.41,0,0,0-4.21-2.13h0v0a3.92,3.92,0,0,0-.44,4.2A4.59,4.59,0,0,0,114,165.5l.75-.95Z"/><path class="cls-4" d="M114.78,164.55l1.72-2.18a2.41,2.41,0,0,0,.42-.85h-2.68Z"/><path class="cls-4" d="M98.83,207.84a2.41,2.41,0,0,0,3.19-3.61l-5-4.46-.51,6Z"/><path class="cls-4" d="M92.67,199.18a2.41,2.41,0,0,0,.21,3.4l3.59,3.17.51-6-.91-.8A2.41,2.41,0,0,0,92.67,199.18Z"/><path class="cls-4" d="M216.14,184.56a2.43,2.43,0,0,0-.51-1.29l-18.78-23.88,0,0a3.92,3.92,0,0,1,.44,4.2,4.59,4.59,0,0,1-1.78,1.88l15.87,20.18,1.19,14.09.9-.8a2.41,2.41,0,0,1,3.19,3.61l-3.59,3.18L214,216a2.41,2.41,0,0,0,2.4,2.21h.2a2.41,2.41,0,0,0,2.2-2.6Z"/><path class="cls-4" d="M197.31,163.62a3.92,3.92,0,0,0-.44-4.2l0,0h0a2.41,2.41,0,0,0-4.21,2.13h2.81l-.67,3,.75.95A4.59,4.59,0,0,0,197.31,163.62Z"/><path class="cls-4" d="M194.78,164.55l.67-3h-2.81a2.28,2.28,0,0,0,.43.85Z"/><path class="cls-4" d="M207.54,204.23a2.41,2.41,0,0,0-.2,3.4,2.38,2.38,0,0,0,1.8.81,2.43,2.43,0,0,0,1.6-.6l2.35-2.08-.5-6Z"/><path class="cls-4" d="M216.89,199.18a2.41,2.41,0,0,0-3.4-.21l-.9.8.5,6,3.59-3.18A2.41,2.41,0,0,0,216.89,199.18Z"/><path class="cls-4" d="M150.9,102.41a6.3,6.3,0,1,0-6.3,6.3A6.31,6.31,0,0,0,150.9,102.41Zm-7.79,0a1.49,1.49,0,1,1,1.49,1.49A1.5,1.5,0,0,1,143.11,102.41Z"/><path class="cls-4" d="M165,96.11a6.3,6.3,0,1,0,6.29,6.3A6.31,6.31,0,0,0,165,96.11Zm0,7.79a1.49,1.49,0,1,1,1.48-1.49A1.51,1.51,0,0,1,165,103.9Z"/><path class="cls-4" d="M161.05,116.79c-2.25,2.25-4.52,3.33-6.68,3.23a8.93,8.93,0,0,1-5.69-3,2.4,2.4,0,0,0-3.75,3c.14.19,3.67,4.53,9.14,4.83l.62,0c3.4,0,6.68-1.56,9.77-4.65a2.41,2.41,0,0,0-3.41-3.4Z"/><polygon class="cls-4" points="128.12 171.05 132.03 205.84 138.29 205.84 135.5 176.22 173.75 176.22 170.25 205.84 176.42 205.84 181.32 171.05 128.12 171.05"/><polygon class="cls-4" points="169.34 213.58 139.02 213.58 138.75 210.66 132.57 210.66 133.49 218.75 174.6 218.75 175.74 210.66 169.69 210.66 169.34 213.58"/><polygon class="cls-4" points="138.29 205.84 132.03 205.84 132.57 210.66 138.75 210.66 138.29 205.84"/><polygon class="cls-4" points="169.69 210.66 175.74 210.66 176.42 205.84 170.25 205.84 169.69 210.66"/><path class="cls-4" d="M143.08,194.5a1.51,1.51,0,0,1-1.47-1.2l-2.75-13.44A1.48,1.48,0,0,1,140,178.1a1.49,1.49,0,0,1,1.77,1.16l2.75,13.44a1.49,1.49,0,0,1-1.16,1.77A1.53,1.53,0,0,1,143.08,194.5Z"/><path class="cls-4" d="M146.8,192.75a1.49,1.49,0,0,1-1.46-1.2l-1.92-9.34a1.5,1.5,0,0,1,2.94-.6l1.91,9.34a1.5,1.5,0,0,1-1.17,1.77A1.53,1.53,0,0,1,146.8,192.75Z"/></g></g></svg>