<svg xmlns="http://www.w3.org/2000/svg" viewBox="0 0 309.56 309.56"><defs><style>.cls-1,.cls-2{fill:none;stroke-miterlimit:10;}.cls-1{stroke:#9f42f5;stroke-width:5px;}.cls-2{stroke:#1499db;stroke-width:4px;}.cls-3{fill:#042354;}</style></defs><g id="Capa_2" data-name="Capa 2"><g id="Capa_1-2" data-name="Capa 1"><circle class="cls-1" cx="154.78" cy="154.78" r="152.28"/><circle class="cls-2" cx="154.78" cy="154.78" r="140.43"/><path class="cls-3" d="M171.88,149a5.35,5.35,0,0,1-1.8,4c-4.5,4.38-9,8.77-13.49,13.15q-9.69,9.41-19.4,18.81c-2.85,2.78-5.78,2.8-8.63,0-2.58-2.54-5.22-5-7.66-7.68s-5-4.78-7.3-7.34a5.43,5.43,0,0,1-.7-6.56,5.29,5.29,0,0,1,5.66-2.32,5.9,5.9,0,0,1,3,1.82c3.5,3.55,7,7.08,10.49,10.65.59.6.94.63,1.56,0,8.22-8,16.39-16,24.74-23.81,1.86-1.74,3.38-3.85,5.61-5.21a5.09,5.09,0,0,1,5.35-.12A4.88,4.88,0,0,1,171.88,149Z"/><path class="cls-3" d="M135.18,112.57a8.64,8.64,0,1,1,.11-17.27,8.64,8.64,0,0,1-.11,17.27Z"/><path class="cls-3" d="M233.48,109c-.23-4.35-1.68-8.15-5.13-11a48.33,48.33,0,0,0-10.21-6.18,5.47,5.47,0,0,0-7.69,3.69,4.15,4.15,0,0,0,1.08,4.29,5.58,5.58,0,0,0,6.7,1.24c2.22-.93,3.45-.58,4.92,1.34a14.42,14.42,0,0,1,3.17,7.1,19.29,19.29,0,0,1-1.65,9.51c-3,7.61-5.86,15.31-8.72,23a1.83,1.83,0,0,1-.71,1.07,5.15,5.15,0,0,0-2.45,3.87,18.35,18.35,0,0,1-3.41,8.56c-3.16,4-8.24,4-11.35,0a20.24,20.24,0,0,1-3.67-8.35,6,6,0,0,0-2.15-3.86,1.42,1.42,0,0,1-.43-.75c-3.5-9.37-6.9-18.78-9.86-28.34-1.54-5-.25-9.15,3.68-12.55a3.13,3.13,0,0,1,3.93-.58,5.91,5.91,0,0,0,5.25.09,5,5,0,0,0,3-6.13,4.55,4.55,0,0,0-5.65-3.35,45.37,45.37,0,0,0-8.26,2.79,11.1,11.1,0,0,0-3.65,2.48c-5.45,5.51-7.16,12.13-5,19.46,2.71,9.09,5.84,18,8.81,27a5.52,5.52,0,0,1,.39,3.33,3.69,3.69,0,0,0,0,1.65c1.08,5.37,3.06,10.35,6.81,14.44,2.17,2.36,4.63,4.38,8.06,4.58.47,0,.5.27.48.66a51.89,51.89,0,0,1-.61,6.83C196,194.06,186,208.53,168.71,217.56c-14.87,7.78-30.48,8.71-46.26,3.08A56.23,56.23,0,0,1,90,191.52c-7-14.17-7.64-28.89-2.88-43.85A51.84,51.84,0,0,1,92.62,136a57.89,57.89,0,0,1,27.84-23.57c2-.82,4.1-1.43,6.16-2.15-2-3.34-2.28-4.22-2.07-6.43.12-1.3.12-1.3-1.16-.92a66.06,66.06,0,0,0-39.83,93.76l-.07,0,.11,0,.08.15c.41.77.83,1.53,1.27,2.29.14.23.26.46.41.68A53.4,53.4,0,0,0,89,205.33h0a64.37,64.37,0,0,0,19.82,17.77c16.87,9.62,34.79,11.9,53.21,5.84,24.73-8.13,39.55-25.48,44.89-50.94a63.94,63.94,0,0,0,1-9.58c0-.37-.17-.89.55-1a11.35,11.35,0,0,0,5.65-2.87c4.86-4,7.06-9.4,8.32-15.36.29-1.43-.09-2.87.41-4.27,2.85-8.11,5.63-16.25,8.49-24.36A29.59,29.59,0,0,0,233.48,109Z"/></g></g></svg>