<svg xmlns="http://www.w3.org/2000/svg" viewBox="0 0 309.56 309.56"><defs><style>.cls-1,.cls-2{fill:none;stroke-miterlimit:10;}.cls-1{stroke:#9f42f5;stroke-width:5px;}.cls-2{stroke:#1499db;stroke-width:4px;}.cls-3{fill:#042354;}</style></defs><g id="Capa_2" data-name="Capa 2"><g id="Capa_1-2" data-name="Capa 1"><circle class="cls-1" cx="154.78" cy="154.78" r="152.28"/><circle class="cls-2" cx="154.78" cy="154.78" r="140.43"/><path class="cls-3" d="M151.61,221.79H88c-4.28,0-5.88-1.6-5.88-5.9q0-39.82,0-79.64a5.83,5.83,0,0,1,3.08-5.47c6.23-3.87,12.34-7.94,18.53-11.88a1.92,1.92,0,0,0,.86-2q0-13.79,0-27.57c0-5.27,3.07-8.35,8.32-8.35H190.2c5.25,0,8.31,3.09,8.31,8.36,0,9.19,0,18.38,0,27.56a2.16,2.16,0,0,0,1.13,2.12c6.35,4,12.67,8.15,19,12.2a4.79,4.79,0,0,1,2.3,4c0,.29,0,.59,0,.88q0,40,0,80.08a7.13,7.13,0,0,1-.43,2.85,4.34,4.34,0,0,1-4,2.73c-1.16,0-2.33,0-3.5,0Zm-.05-136.14H113.2c-3,0-4,1-4,4,0,18.38,0,36.75-.06,55.13,0,2.2.51,3.58,2.54,4.4a14.88,14.88,0,0,1,2,1.18c12,7.31,24,14.59,35.93,21.94a3.2,3.2,0,0,0,3.85,0q19.43-11.93,38.93-23.73a2.67,2.67,0,0,0,1.54-2.61q-.07-28.22,0-56.44c0-2.93-1-3.91-4-3.91ZM90.37,216.73l.22.32H212.92c-15.71-15.83-31.2-31.43-46.7-47.06-3.71,2.27-7.28,4.42-10.83,6.62a6.74,6.74,0,0,1-7.68,0c-3.05-1.9-6.15-3.72-9.18-5.65a1.71,1.71,0,0,0-2.57.26q-18.41,18.51-36.89,36.94C96.19,211.05,93.27,213.88,90.37,216.73Zm42.4-49.23L86.91,139.55v73.82Zm83.45,46.25V139.53l-45.9,28ZM89.58,135.35l-.13.29,15,9.15v-9.44Zm124.05.29-.14-.28H198.62v9.43Zm-118.9-5.42.09.37c3,0,6.05,0,9.07,0,.22,0,.63-.39.63-.6,0-1.9,0-3.81,0-6.08ZM198.63,124v6.51h9.64l0-.26Z"/><path class="cls-3" d="M157.61,132c-.88,1.16-1.48,2-2.15,2.83a11.61,11.61,0,0,1-9.71,4.45c-4.81-.17-8.13-3.91-8.42-9.28a19,19,0,0,1,20-19.84,35.66,35.66,0,0,1,5.32.83c1.86.43,2.22,1.09,1.87,3-.81,4.29-1.68,8.58-2.41,12.89a23.44,23.44,0,0,0-.35,5.22c.17,3,2.24,4.17,5,3a9.4,9.4,0,0,0,4.32-4.2c4-6.82,2.9-18.41-2.35-24.31-4.21-4.72-9.69-6.37-15.78-6-12.34.65-21.49,9.51-23.08,22.08-.62,4.89-.5,9.73,1.44,14.34,3.17,7.53,9,11.47,17.07,12.19a26,26,0,0,0,12.16-1.74c1.09-.45,2-.39,2.59.76s-.07,2-1.11,2.44c-10.5,4.41-26.46,3.61-33.79-9.82-4.05-7.44-4-15.33-1.57-23.22,4.16-13.4,15.5-21.34,29.52-20.59s22.45,11.4,21.7,24.86c-.27,4.71-1.46,9.12-4.58,12.81a12.44,12.44,0,0,1-8.5,4.6c-4.33.42-6.82-1.7-7.11-6.09C157.72,132.86,157.68,132.63,157.61,132Zm-2-17.76a19.61,19.61,0,0,0-2,.17c-7.55,1.33-11.79,9.22-11,15.64a5.52,5.52,0,0,0,8.35,4.14,13.76,13.76,0,0,0,3.5-3c3.68-4.27,3.8-9.73,4.72-14.9a1.63,1.63,0,0,0-1.5-1.85A17,17,0,0,0,155.64,114.22Z"/></g></g></svg>